<svg xmlns="http://www.w3.org/2000/svg" version="1.0" width="617.3228149414062" height="491.02362060546875" preserveAspectRatio="xMidYMid meet" style=""><rect id="backgroundrect" width="100%" height="100%" x="0" y="0" fill="none" stroke="none" class="" style=""/>


<g class="currentLayer" style=""><title>Layer 1</title><g transform="translate(0,480) scale(0.10000000149011612,-0.10000000149011612) " fill="#ff0000" stroke="#ff0000" id="svg_1" class="" stroke-opacity="1" stroke-width="5" fill-opacity="1">
<path d="M1272,4373 c-143,-70 -120,-424 42,-663 c42,-61 42,-48 3,-215 c-47,-201 -59,-308 -64,-566 c-7,-313 11,-487 76,-755 l27,-111 l-28,-34 c-44,-52 -115,-205 -138,-293 c-12,-49 -20,-112 -20,-166 c0,-75 4,-94 28,-140 c18,-36 38,-60 62,-72 c104,-56 271,54 380,250 l44,78 l66,-24 c212,-77 597,-170 855,-206 c491,-69 1009,-56 1495,39 c183,36 304,67 507,131 c95,30 174,54 176,54 c2,0 21,-25 41,-55 c54,-78 173,-187 241,-220 c112,-55 211,-41 250,36 c65,125 -16,387 -173,561 l-34,37 l31,123 c116,467 116,922 -1,1400 l-31,127 l50,58 c68,78 125,169 158,250 c37,90 45,220 18,272 c-30,57 -65,76 -134,74 c-111,-2 -250,-91 -363,-231 l-56,-69 l-132,45 c-263,87 -595,161 -903,199 c-200,25 -820,25 -1015,1 c-352,-45 -736,-133 -976,-223 c-37,-14 -68,-24 -70,-23 c-1,2 -18,33 -37,70 c-68,130 -148,217 -239,258 c-52,24 -92,25 -136,3 zm666,-650 c-32,-98 -62,-197 -68,-220 l-11,-43 l-158,0 l-159,0 l17,68 c10,37 31,107 47,156 c27,82 32,90 64,104 c50,21 303,111 315,111 c6,1 -16,-79 -47,-176 zm2717,120 c66,-25 133,-49 148,-55 c33,-12 45,-39 88,-187 c16,-58 32,-114 35,-123 c5,-17 -7,-18 -154,-18 l-160,0 l-21,78 c-11,42 -41,138 -66,212 c-25,74 -45,138 -45,142 c0,12 38,1 175,-49 zm-1624,-535 c64,-22 584,-328 617,-363 c26,-28 32,-43 32,-78 c0,-79 -18,-94 -330,-275 c-157,-91 -306,-171 -332,-178 c-74,-20 -131,4 -164,68 c-21,40 -20,713 0,763 c27,64 100,90 177,63 zm-1215,-53 c-3,-9 -11,-66 -17,-128 c-6,-62 -13,-127 -15,-144 l-5,-33 l-149,0 l-150,0 l0,60 c0,32 5,104 11,160 l12,100 l159,0 c140,0 159,-2 154,-15 zm3159,-42 c11,-85 21,-254 16,-259 c-2,-2 -71,-4 -152,-4 l-148,0 l-5,58 c-4,31 -12,103 -19,160 l-13,102 l157,0 l157,0 l7,-57 zm-3191,-485 c3,-24 10,-90 16,-146 c6,-57 14,-110 17,-118 c4,-12 -19,-14 -153,-12 l-159,3 l-12,90 c-6,50 -12,120 -12,158 l-1,67 l149,0 l150,0 l5,-42 zm3208,-13 c-1,-27 -7,-98 -13,-157 l-12,-108 l-153,0 c-176,0 -161,-12 -145,112 c6,40 13,103 16,141 l7,68 l151,-3 l151,-3 l-2,-50 zm-3108,-547 c16,-57 48,-157 72,-222 c24,-66 44,-121 44,-122 c0,-4 -273,90 -324,111 c-22,10 -41,26 -48,43 c-12,32 -72,225 -82,265 l-6,27 l158,0 l158,0 l28,-102 zm3046,98 c0,-12 -71,-250 -84,-280 c-10,-24 -26,-40 -51,-50 c-62,-26 -296,-106 -310,-106 c-10,0 -5,20 16,75 c16,42 47,138 70,213 c23,75 43,140 46,145 c4,7 313,10 313,3 z" id="svg_2" stroke="#ff0000" stroke-opacity="1" stroke-width="5" fill="#ff0000"/>
<path d="M3496,1194 c-78,-11 -93,-16 -117,-42 c-16,-17 -33,-32 -40,-34 c-14,-5 9,-61 43,-101 c24,-30 95,-52 129,-42 c22,7 20,32 19,-283 c-1,-172 -4,-212 -21,-267 c-22,-71 -21,-71 -99,-30 c-39,20 -87,19 -99,-3 c-32,-53 -36,-55 -78,-34 c-21,11 -60,23 -85,27 l-47,7 l-10,52 c-6,28 -11,71 -13,96 l-3,45 l58,14 c66,15 117,56 117,93 c0,45 -67,88 -137,88 l-35,0 l6,48 c19,166 13,150 57,157 c68,12 120,74 104,124 c-3,9 -18,25 -35,34 c-26,16 -45,17 -140,11 l-110,-7 l-27,-36 c-31,-41 -54,-147 -73,-351 c-16,-165 -8,-297 25,-395 c14,-41 25,-83 25,-93 c0,-9 16,-32 35,-51 c28,-27 46,-35 83,-38 c68,-7 187,21 229,53 l34,26 l48,-46 c59,-55 136,-81 219,-74 c51,5 60,9 97,50 c25,28 55,79 76,129 l34,84 l3,285 c2,227 0,301 -12,359 c-19,90 -31,110 -86,139 c-47,25 -49,25 -174,6 z" id="svg_3" stroke="#ff0000" stroke-opacity="1" stroke-width="5" fill="#ff0000"/>
<path d="M1509,1173 c-93,-48 -177,-177 -215,-333 c-15,-57 -19,-109 -18,-220 c2,-207 30,-294 126,-397 c54,-56 91,-73 166,-73 c38,0 48,6 91,48 c56,56 105,151 105,206 c0,33 -5,44 -38,72 c-66,57 -120,43 -177,-46 l-17,-25 l-12,45 c-32,115 -9,387 40,468 c29,47 46,50 84,13 c24,-23 41,-31 67,-31 c38,0 69,24 69,53 c0,9 5,19 10,22 c6,3 10,25 10,49 c0,125 -169,212 -291,149 z" id="svg_4" stroke="#ff0000" stroke-opacity="1" stroke-width="5" fill="#ff0000"/>
<path d="M1856,1151 c-3,-23 -13,-41 -23,-45 c-12,-5 -14,-9 -6,-14 c8,-5 14,-87 18,-262 c6,-214 5,-270 -9,-348 c-11,-63 -15,-113 -10,-154 c6,-54 12,-66 49,-104 c33,-33 52,-44 88,-49 c64,-10 86,0 106,48 c29,68 44,228 32,322 c-6,44 -13,109 -16,145 c-17,232 -28,350 -36,383 c-12,45 -76,97 -121,97 c-16,0 -37,4 -47,10 c-16,8 -19,4 -25,-29 z" id="svg_5" stroke="#ff0000" stroke-opacity="1" stroke-width="5" fill="#ff0000"/>
<path d="M4215,1153 c-25,-37 -25,-39 -25,-248 c0,-212 -12,-332 -46,-462 c-9,-34 -22,-67 -29,-73 c-36,-30 -72,255 -61,479 c6,136 -4,242 -27,271 c-22,29 -61,50 -94,50 c-24,0 -37,-7 -54,-31 c-45,-64 -61,-534 -24,-712 c18,-88 43,-132 111,-199 c66,-67 104,-82 185,-76 c47,3 66,10 96,34 c102,83 166,324 179,673 c7,177 7,178 -19,234 c-30,65 -72,97 -129,97 c-32,0 -41,-5 -63,-37 z" id="svg_6" stroke="#ff0000" stroke-opacity="1" stroke-width="5" fill="#ff0000"/>
<path d="M2630,1131 c-8,-3 -27,-14 -41,-24 c-26,-18 -27,-19 -34,-189 c-4,-103 -11,-166 -16,-157 c-4,9 -26,65 -47,126 c-50,139 -54,145 -94,167 c-32,17 -35,17 -83,-2 c-63,-24 -74,-45 -64,-119 c9,-62 -8,-260 -37,-439 c-23,-139 -14,-204 32,-250 c24,-25 42,-34 67,-34 c59,0 79,34 92,156 c10,91 20,95 41,17 c14,-53 28,-78 62,-116 c25,-26 52,-47 61,-47 c9,0 25,-7 35,-15 c26,-19 32,-19 40,2 c3,10 17,33 31,52 c14,19 25,44 25,56 c0,12 16,98 35,191 c38,186 62,474 44,537 c-18,65 -96,112 -149,88 z" id="svg_7" stroke="#ff0000" stroke-opacity="1" stroke-width="5" fill="#ff0000"/>
<path d="M4910,1129 c-14,-6 -35,-20 -47,-31 c-22,-20 -23,-30 -24,-162 c-1,-198 -7,-205 -57,-62 c-23,64 -42,121 -42,126 c0,4 -16,22 -36,40 c-26,22 -43,30 -58,26 c-41,-10 -95,-36 -102,-48 c-5,-7 -9,-73 -9,-148 c-1,-74 -10,-193 -21,-265 c-10,-71 -19,-174 -19,-227 l0,-97 l34,-35 c28,-29 42,-36 73,-36 c52,0 72,34 88,151 c6,50 15,87 19,82 c4,-4 16,-36 26,-71 c14,-49 29,-73 64,-107 c25,-25 51,-45 57,-45 c6,0 23,-9 37,-20 l25,-20 l6,25 c4,14 10,25 15,25 c18,0 51,72 51,109 c0,21 9,74 20,117 c32,130 48,254 56,421 c6,137 5,163 -10,191 c-29,56 -91,82 -146,61 z" id="svg_8" stroke="#ff0000" stroke-opacity="1" stroke-width="5" fill="#ff0000"/>
</g></g></svg>